<svg preserveAspectRatio="none" width="100%" height="100%" overflow="visible" style="display: block;" viewBox="0 0 241.2 240.188" fill="none" xmlns="http://www.w3.org/2000/svg">
<path id="Smiley" d="M120.6 0C187.207 0 241.2 53.7821 241.2 120.094C241.2 186.421 187.207 240.188 120.6 240.188C53.9933 240.187 0 186.421 0 120.094C1.81237e-06 53.7822 53.9933 0.000200345 120.6 0ZM120.601 14.416C61.9844 14.416 14.4609 61.7399 14.4609 120.095C14.461 178.465 61.9844 225.788 120.601 225.788C179.201 225.788 226.726 178.465 226.726 120.095C226.726 61.7399 179.201 14.416 120.601 14.416ZM77.583 152.587C80.1282 150.075 84.2624 150.075 86.8076 152.587C87.3171 153.078 100.121 165.325 122.969 165.325C145.816 165.325 158.621 153.078 159.154 152.563C161.721 150.089 165.845 150.111 168.367 152.625C170.891 155.142 170.894 159.185 168.355 161.688C167.678 162.356 151.438 177.391 122.969 177.391C94.4991 177.39 78.26 162.356 77.583 161.688C75.0354 159.175 75.0354 155.101 77.583 152.587ZM89.0723 81.6309C96.4728 81.6311 102.472 87.6051 102.472 94.9746C102.472 102.344 96.4728 108.318 89.0723 108.318C81.6715 108.318 75.6719 102.344 75.6719 94.9746C75.6719 87.6049 81.6715 81.6309 89.0723 81.6309ZM155.282 81.6309C162.683 81.6309 168.683 87.6049 168.683 94.9746C168.683 102.344 162.683 108.318 155.282 108.318C147.882 108.318 141.883 102.344 141.883 94.9746C141.883 87.6051 147.882 81.6311 155.282 81.6309Z" fill="var(--fill-0, white)"/>
</svg>
