<svg preserveAspectRatio="none" width="100%" height="100%" overflow="visible" style="display: block;" viewBox="0 0 40.6771 56.4554" fill="none" xmlns="http://www.w3.org/2000/svg">
<g id="U50hjX.tif">
<path id="Vector" d="M29.3279 25.5526L29.0653 25.6839L30.4932 25.7824V25.6019H31.5271L31.4122 25.766C31.8882 25.766 32.1672 25.8644 32.2 26.1434C32.2328 26.4223 32.4298 26.6684 32.2985 26.9474C32.1672 27.2263 32.2985 27.2263 31.6256 27.2099C31.5771 27.1981 31.5264 27.1981 31.4779 27.2099C31.2317 27.0458 30.9855 26.8653 30.7065 26.7012C30.5754 26.6929 30.4438 26.6929 30.3126 26.7012L30.6081 26.9146L29.5249 27.1935C29.5332 27.2918 29.5332 27.3906 29.5249 27.4889C29.5249 27.8006 29.8695 27.9975 30.6409 28.0303L31.0512 28.9L30.7065 28.9985L30.05 28.818L29.9352 28.9C30.3947 28.9 29.9352 29.3759 30.7229 29.1625V29.5399L30.1157 29.6384V29.3759C29.3772 29.3759 29.3279 29.3759 29.6233 29.7861C29.2908 29.813 28.9643 29.8905 28.655 30.0158C28.3432 30.2127 27.9657 30.426 28.294 30.6886C28.4738 30.6657 28.6558 30.6657 28.8356 30.6886C28.934 30.8034 28.8356 30.9347 28.8356 31.0824L29.3936 31.2793C29.6121 31.0746 29.8709 30.9177 30.1535 30.8188C30.4361 30.7199 30.7363 30.6811 31.0348 30.705C31.5086 30.6966 31.9808 30.6472 32.4462 30.5573C32.8072 30.5573 33.3488 30.5573 33.3817 30.8034C33.4093 30.8826 33.4526 30.9553 33.509 31.0173C33.5654 31.0794 33.6337 31.1294 33.7099 31.1644L33.8904 31.7879C34.3499 31.7879 34.7602 31.7879 34.7602 32.1325C34.7602 32.4771 34.8751 32.1325 34.9244 32.231C35.0035 32.2098 35.0765 32.1705 35.1377 32.1161C35.1377 32.1161 35.1377 32.0177 35.2526 31.952V34.0359H35.9747L35.0557 34.2492L35.6465 34.4133L35.4988 34.5446H35.5972L36.4014 34.2985L36.6968 34.561L35.8434 34.8564V34.9876L35.6793 34.7251H35.4331C35.7285 34.9056 35.8434 35.0533 35.3018 35.1189C35.2034 35.1189 35.2034 35.3322 35.1541 35.4635L34.3499 35.3322V35.4963H34.1858V34.5446H33.9068L34.0053 35.1025H33.7755L33.2996 34.6102C33.0871 34.6844 32.8669 34.734 32.6431 34.7579C31.9377 34.8033 31.2473 34.9814 30.6081 35.283C29.3608 35.6768 28.1299 36.1034 26.9482 36.5464C25.4876 37.0879 24.6341 37.7935 24.6177 38.7124C24.5112 39.7315 24.4783 40.757 24.5193 41.7808C24.8062 44.8403 24.9048 47.9145 24.8147 50.9861C24.8147 51.4291 24.9788 51.8557 24.9952 52.2988C25.0354 52.845 25.0354 53.3934 24.9952 53.9396C24.9616 54.3997 25.0294 54.8615 25.1939 55.2925C25.3584 55.7235 25.6155 56.1131 25.9471 56.4338C24.5703 56.4958 23.1907 56.4244 21.8277 56.2204C22.8288 55.5805 22.2708 54.8257 22.6976 54.1365L22.9437 54.235C22.9437 54.0053 23.1899 53.7591 22.9437 53.6279C22.4186 53.2505 22.6975 52.8731 22.6647 52.4957C22.6319 52.1183 22.9109 52.0362 22.9273 51.8065C23.0258 50.8384 23.0586 49.8703 23.1407 48.9022C23.2555 47.5403 23.4361 46.1783 23.4689 44.8164C23.3985 44.0836 23.2889 43.3551 23.1407 42.6341C23.1407 41.748 23.1407 40.8455 23.1407 39.943C23.1407 39.861 23.272 39.7625 23.3704 39.6477H23.2063C23.1062 39.3601 23.0347 39.0633 22.993 38.7616C22.993 38.2365 22.993 37.7279 22.993 37.2028V36.3003C22.993 36.3003 22.993 36.1526 22.993 36.1034C22.1038 35.1969 20.9583 34.5842 19.7106 34.3477C18.9386 34.1649 18.177 33.9403 17.4294 33.6749C16.5193 33.468 15.5783 33.4345 14.6558 33.5765C14.099 33.6202 13.5486 33.7247 13.0146 33.8882C12.8833 33.8882 13.0146 34.1344 13.0146 34.2492C12.6433 34.3458 12.2534 34.3458 11.8822 34.2492L11.2421 33.9375L10.8482 34.0195L10.6513 33.8554C10.0604 33.8554 10.9139 34.2821 10.2246 34.3477L9.0265 34.4297V34.8892L8.10744 35.0697L7.36891 34.8071L7.15556 35.0204L6.17085 34.6759L5.6949 34.7743L5.18614 34.4625H4.2999V34.7087L4.08655 34.561H3.23313H2.72436C2.54765 34.5377 2.37233 34.5048 2.19918 34.4625L1.60836 34.3313C1.60836 34.2164 1.70683 34.0195 1.60836 33.8718C1.32421 33.8008 1.03095 33.7731 0.738533 33.7898C0.968299 33.3796 0.919062 33.3303 0 33.1827C0.0984709 33.0842 0.361058 32.953 0.311822 32.8709C0.262587 32.7889 0.164116 32.592 0.607236 32.5756C0.689118 32.5832 0.771533 32.5832 0.853415 32.5756C0.994152 32.5623 1.1323 32.5292 1.26371 32.4771C1.26371 32.4771 1.18165 32.3294 1.26371 32.1982L2.00224 32.4607C2.1773 32.2419 2.34142 32.0286 2.4946 31.8208C1.95301 31.2793 1.96942 31.2629 2.83924 30.869C2.96917 30.8052 3.06921 30.6935 3.11825 30.5573C3.31557 30.424 3.55338 30.3642 3.79029 30.3882C4.02719 30.4122 4.24818 30.5185 4.41478 30.6886H4.69378C5.33384 30.6886 5.56361 30.8034 5.46514 31.1644L6.49908 30.7378L7.0735 31.0824L8.71467 30.9019C8.88036 30.8622 9.0403 30.8015 9.19062 30.7214H9.65015C8.97726 30.4588 10.044 30.4096 9.65015 30.1471C9.25626 29.8845 10.3394 29.5728 11.0123 29.5728C11.1337 29.5825 11.2558 29.5714 11.3734 29.5399H11.1929C11.384 29.5232 11.5762 29.5232 11.7673 29.5399C12.2268 29.6548 12.7848 29.7369 12.6207 30.1143C12.6207 30.2127 12.6207 30.5245 13.2608 30.3932C13.3467 30.3694 13.4374 30.3694 13.5233 30.3932C14.0652 30.4998 14.6227 30.4998 15.1645 30.3932C15.2894 30.3689 15.4007 30.2986 15.4763 30.1963C15.5912 29.9666 15.7225 29.7368 16.4611 29.7697L16.1821 29.5399C16.8878 29.5399 16.9862 29.2446 16.8549 29.0149L15.8046 28.9328C15.6301 28.9523 15.4539 28.9523 15.2794 28.9328C14.9348 28.7359 14.4916 28.539 14.9676 28.2437H14.1798V28.4898L13.9665 28.3749C13.9665 28.3749 13.7859 28.4734 13.7859 28.5226C13.7686 28.6368 13.7686 28.753 13.7859 28.8672L13.2936 28.7359L13.5562 28.2108H13.4085L12.8833 28.5718C13.031 28.2765 12.5386 27.9647 13.2443 27.7186H13.0146H12.8669H12.7192C12.3089 27.374 12.7192 27.1279 13.0966 26.8981C13.4741 26.6684 13.3921 26.4223 13.0966 26.2582H12.9489C12.8623 26.2052 12.7848 26.1388 12.7192 26.0613C12.7192 26.0613 12.7192 25.9629 12.7192 25.93H12.5715C12.5743 25.9902 12.5743 26.0504 12.5715 26.1105C12.5762 26.1761 12.5762 26.2419 12.5715 26.3074C12.194 26.3074 12.0463 26.3074 12.0299 26.0285C12.0135 25.7495 11.7509 25.7331 11.5375 25.5198C11.3077 25.7988 11.5375 26.0121 11.5375 26.2582H10.9631L11.1108 25.8808C10.8646 25.8808 10.4379 25.7495 10.3559 25.6347C10.2738 25.5198 10.3559 25.2901 10.5036 25.126C10.7015 25.0721 10.9057 25.0445 11.1108 25.044L11.0123 24.7486L11.9314 24.9127H12.1448C13.3428 25.0604 12.6699 25.487 12.8012 25.7824H12.9818L13.7039 25.1588H13.6054L13.31 25.3065C13.0802 25.044 13.0638 24.8143 13.6711 24.7322C13.8619 24.7546 14.0546 24.7546 14.2455 24.7322C14.6393 24.7322 14.2455 24.6009 14.3439 24.5353C14.4424 24.4697 14.4916 24.404 14.5901 24.3056L14.1798 24.2071L14.4096 23.7149C14.155 23.7114 13.9016 23.6784 13.6546 23.6164C13.5233 23.6164 13.4577 23.4031 13.5233 23.3375C13.589 23.2718 13.7039 22.9929 14.2783 23.0257C14.426 23.0257 14.6722 22.7468 14.9676 22.5334H13.0802C12.2925 22.5334 11.439 22.5334 10.7169 22.5334C10.3614 22.583 10.0103 22.6598 9.66656 22.7632L9.55168 22.5334L9.23985 22.6483C8.91161 22.4678 8.61621 22.2709 8.27156 22.1068C8.09873 22.1369 7.9286 22.1808 7.76279 22.2381C8.14026 22.6155 7.31968 22.6155 7.10632 22.5991C6.35138 22.5991 6.56473 22.7796 6.48267 22.9437H5.79337L5.6949 22.7304L5.26819 22.8616H5.10408C5.25788 22.7229 5.42252 22.5967 5.59643 22.4842C5.8262 22.353 5.74414 22.1396 5.36667 22.0904L5.87544 21.631L5.59643 21.4341L5.8262 21.2043C6.0277 21.2314 6.23193 21.2314 6.43344 21.2043C6.43344 21.1223 6.43344 21.0074 6.43344 20.8926C6.42521 20.8107 6.42521 20.7283 6.43344 20.6464C6.43155 20.5918 6.41728 20.5383 6.39169 20.49C6.3661 20.4417 6.32987 20.3998 6.28573 20.3675C6.28573 20.1378 6.3842 20.0065 6.97502 19.9737C7.25446 19.9188 7.52146 19.8131 7.76279 19.6619C8.04809 19.7388 8.3389 19.7937 8.63262 19.826C9.22345 19.826 9.32191 19.9737 9.12497 20.2198C8.92803 20.466 9.12497 20.2198 9.12497 20.2198L10.0112 20.466C10.2553 20.3581 10.5078 20.2703 10.7662 20.2034C10.9959 20.2034 11.357 20.2034 11.4062 20.0229C11.3843 19.9149 11.3733 19.805 11.3734 19.6947C11.718 19.6947 11.9806 20.1378 12.5386 19.8096C12.6085 19.8807 12.6923 19.9366 12.7848 19.9737C13.4085 20.1542 13.5069 20.2691 13.3428 20.5972C13.1787 20.9254 13.4249 20.8434 13.5562 20.9746C13.9172 20.63 13.9172 20.63 14.3932 20.8105L14.9676 19.9737H14.7871L14.5409 20.1378C14.4096 19.8588 15.0661 19.5307 14.2619 19.2681L14.1142 19.5143C13.3964 19.4484 12.673 19.4815 11.9642 19.6127L11.8822 19.4486L10.9959 19.5635C10.6841 19.3173 10.4543 19.2517 9.69939 19.4158V18.4805C9.64402 18.5342 9.57643 18.5736 9.50245 18.5954C9.29761 18.6824 9.08253 18.7431 8.86239 18.7759C8.76392 18.7759 8.56697 18.6282 8.50132 18.5297C8.39297 18.3065 8.29976 18.0763 8.22233 17.8406C8.05826 18.0126 7.85339 18.1404 7.62673 18.2121C7.40007 18.2838 7.15897 18.2971 6.92579 18.2508C6.69648 18.2273 6.47371 18.1604 6.26932 18.0539C6.15373 17.9734 6.01628 17.9303 5.87544 17.9303C5.73459 17.9303 5.59713 17.9734 5.48155 18.0539C5.23042 18.1627 4.97281 18.2558 4.71019 18.3328L4.48043 18.0539L4.08655 18.1851C4.20143 17.8898 2.88848 17.8242 3.69266 17.4632C3.62841 17.4072 3.56809 17.3469 3.51213 17.2827C3.51213 17.1842 3.51213 17.053 3.43007 17.0201C2.83925 16.8232 3.24954 16.8068 3.57778 16.692C3.94321 16.6053 4.28862 16.4493 4.59531 16.2325C4.8579 15.9864 5.21896 16.0356 5.59643 16.0356H6.44985L6.86014 16.5443L7.2212 16.331V15.7731L7.61508 15.0019H6.87655L6.99144 14.7721H6.84373L6.74526 15.0019H6.56473V14.165H6.84373C6.6632 13.9025 7.36891 13.5579 6.63038 13.361L7.45097 12.2124C7.75295 12.1422 8.06046 12.0983 8.37003 12.0811C8.4685 12.0811 8.58338 12.2124 8.79674 12.3437C9.05188 12.2091 9.32173 12.1045 9.60091 12.0319C10.0092 11.9354 10.4291 11.8967 10.8482 11.917C11.3234 11.9696 11.7947 12.0518 12.2596 12.1632C12.6371 11.9827 13.1787 11.8842 13.0638 11.5725L12.8833 11.7201L13.9993 12.0155L14.6065 11.6873C14.8363 11.5396 14.8527 11.3099 15.3615 11.2607C15.4599 11.2607 15.4599 11.031 15.5092 10.9161L16.0508 10.9982L15.7061 10.6208H15.2466C15.1317 10.391 15.0496 10.1941 14.9348 9.99722C14.8895 9.92544 14.8194 9.87285 14.7378 9.84954C14.2291 9.84954 14.4752 9.55419 14.6065 9.48855C14.9566 9.26605 15.3311 9.08437 15.7225 8.94707C15.8912 8.92214 16.0626 8.92214 16.2313 8.94707C16.3954 8.94707 16.5595 8.94707 16.7237 9.04552C16.8878 9.14397 17.2817 9.04552 16.9698 9.20961C17.0717 9.27404 17.1822 9.32376 17.2981 9.35728C17.6919 9.47214 17.7412 9.5706 17.2981 9.75109C17.5953 9.73725 17.8913 9.70437 18.1843 9.65264C18.3977 9.65264 18.7095 9.47215 18.1843 9.34088C17.6591 9.20961 17.6427 8.99629 17.774 8.78298C17.9873 8.49157 18.2292 8.22222 18.4961 7.97896H18.8572L18.7587 7.76564C18.7587 7.76564 18.7587 7.65078 18.6274 7.65078C18.5243 7.63236 18.4187 7.63236 18.3156 7.65078L17.4129 8.22509H16.2969V8.40558L14.8691 8.70094L15.3451 8.20868L14.8691 8.30713L14.6558 8.04459L14.3275 8.20868C13.887 7.76841 13.3065 7.49566 12.6863 7.43747L12.3581 6.96162H12.1776L12.8176 6.51858L11.636 6.38732C11.636 6.05914 11.7837 5.99351 12.2596 5.92787L12.8505 5.71456C12.6535 5.33716 12.9982 5.0418 13.7859 4.86131C13.9829 4.86131 14.0978 4.68081 14.2455 4.59877L14.0813 4.50032C13.8901 4.56096 13.6911 4.59411 13.4905 4.59877C13.2608 4.59877 12.9161 4.41827 12.9489 4.36905C13.1287 4.22708 13.3276 4.11109 13.5398 4.02447C13.9015 4.14824 14.2941 4.14824 14.6558 4.02447C14.8633 4.00727 15.0719 4.00727 15.2794 4.02447L14.8363 3.90961C15.1498 3.97746 15.468 4.02134 15.7882 4.04088C16.1156 4.01858 16.44 3.96361 16.7565 3.87679C16.2149 3.58143 16.5267 2.84304 17.216 2.761C17.3991 2.71446 17.5909 2.71446 17.774 2.761C18.0202 3.00713 18.2335 2.89227 18.4797 2.761L18.8736 2.99072H19.0377C18.9228 2.72818 18.9064 2.44923 18.6602 2.23592C18.4141 2.02261 18.1679 1.84211 18.6602 1.49753L18.3156 1.15295H18.8244L19.4316 0.956045C19.5906 0.973878 19.7509 0.938436 19.8876 0.855282C20.0242 0.772127 20.1294 0.645968 20.1865 0.496603C20.2928 0.42935 20.4092 0.379497 20.5312 0.348925C20.6297 0.348925 20.8102 0.348925 20.8266 0.234064C20.8266 -0.110518 21.319 0.00434245 21.68 0.0863858C21.9558 0.172555 22.2453 0.205956 22.5334 0.184838C23.2063 0.0535685 23.4525 0.398151 23.8792 0.52942C24.3563 0.689815 24.8134 0.904538 25.2414 1.16936H25.3399C25.635 1.14504 25.9316 1.19369 26.2035 1.31101C26.4754 1.42833 26.7142 1.61073 26.899 1.84211C27.26 2.15388 27.0139 2.53128 26.7513 2.90868C27.7196 3.20403 26.5707 3.66348 26.9974 4.05728C27.0959 4.05728 27.2272 4.05728 27.26 4.05728C27.5719 3.69629 28.2119 3.67988 28.9012 3.69629C29.2135 3.66321 29.5284 3.72618 29.8039 3.87679C29.9859 3.97306 30.1887 4.02338 30.3947 4.02338C30.6006 4.02338 30.8035 3.97306 30.9855 3.87679C31.1116 3.81041 31.2435 3.75549 31.3794 3.7127V3.87679C31.6089 3.86036 31.8392 3.86036 32.0687 3.87679C32.524 3.91665 32.9745 3.99905 33.4145 4.12292C33.7744 4.31209 34.1104 4.54344 34.4156 4.81208C34.6618 4.97617 34.5797 5.32075 35.4331 5.14026V5.2223L34.9408 5.69815L35.9911 5.51766L35.548 6.22323L36.3358 7.20775H35.5152L35.4167 7.56874C35.6793 7.56874 36.4507 7.47029 36.1224 7.8805H35.6629C35.6629 8.01177 35.6629 8.14304 35.8434 8.22509C36.303 8.50403 36.2209 8.73376 35.5808 8.89784L34.99 9.11115H34.8423L34.2515 10.3582L33.8412 10.0464C32.8236 10.391 32.758 9.75109 32.0031 9.71828L32.2 10.0629C31.921 10.2105 31.6256 10.4238 32.2 10.67H31.7241C31.7153 10.7408 31.7153 10.8125 31.7241 10.8833C31.7146 10.9376 31.7146 10.9931 31.7241 11.0474C30.7722 11.0474 30.608 11.5068 29.9844 11.7037L28.9505 11.4904C28.6879 11.7201 28.3104 11.917 28.6879 12.196C28.6879 12.196 28.6879 12.3273 28.5894 12.3929C28.5231 12.4726 28.4679 12.5609 28.4253 12.6554C28.4253 12.6554 28.6879 12.7539 28.6879 12.7539C28.8328 12.6799 28.9702 12.5919 29.0982 12.4913C29.0982 12.4913 29.0982 12.4913 29.0982 12.3273C29.5413 12.4585 30.0829 12.4749 30.0829 12.7703C30.2797 12.8312 30.4841 12.8643 30.6901 12.8687C31.2153 12.8687 31.6256 12.7703 31.642 12.5406C31.6584 12.3108 31.642 12.1468 32.4298 12.0155L32.2328 11.7365L32.0523 11.8514C31.8389 11.5396 32.0523 11.2115 32.6431 11.1622C33.0656 11.1651 33.4875 11.1925 33.9068 11.2443H34.2843C34.5613 11.1978 34.8456 11.2232 35.1099 11.318C35.3743 11.4128 35.6099 11.5739 35.7942 11.7858C35.8927 11.9663 36.0239 12.0483 36.4342 11.9334C36.6855 11.8725 36.9473 11.8689 37.2001 11.9229C37.453 11.9769 37.6904 12.087 37.8949 12.2452C38.6006 12.1303 38.7647 12.2452 39.0109 12.4913C39.2536 12.7318 39.4785 12.9895 39.6838 13.2625C39.8606 13.613 40.0141 13.9748 40.1433 14.3455C40.1716 14.4156 40.2167 14.4776 40.2746 14.526C40.488 14.7393 41.0624 14.9526 40.2746 15.1824C40.2746 15.1824 40.2746 15.3793 40.2746 15.5105L39.8151 15.2316L39.6017 15.3464L39.4376 15.1003H38.256L38.0426 15.2808L37.0743 14.9526V15.7238C36.6968 15.5434 36.5327 15.248 36.0568 15.4613C35.8598 15.5598 35.9419 15.7731 36.0568 15.9372C35.9909 16.044 35.901 16.1339 35.7942 16.1997C35.5972 16.3146 35.2034 16.3966 35.1541 16.5279C35.1049 16.6591 35.3675 16.8396 34.9244 16.9873C34.4812 17.135 34.5961 17.2663 34.4156 17.4303C34.2351 17.5944 33.6278 17.5452 33.9068 17.1678H33.4637C33.3564 17.1881 33.2553 17.2331 33.1683 17.2991L33.6935 17.7257C33.8628 17.9142 34.0975 18.0315 34.3499 18.0539C34.6454 18.0539 34.8751 18.3328 35.0885 18.4969C35.3018 18.661 35.2526 18.7102 35.3347 18.8251H35.0392C34.9577 18.849 34.884 18.8943 34.8259 18.9564C34.8259 18.9564 34.9244 19.0712 35.0064 19.0876C35.7778 19.2845 35.827 19.4814 35.187 19.744C34.9489 19.8285 34.7183 19.9328 34.4976 20.0557C34.4771 20.0671 34.46 20.0837 34.4481 20.1039C34.4362 20.1241 34.4299 20.1471 34.4299 20.1706C34.4299 20.194 34.4362 20.2171 34.4481 20.2373C34.46 20.2575 34.4771 20.2741 34.4976 20.2855C34.7602 20.4167 34.9244 20.5316 34.5961 20.7121C34.5961 20.7121 34.5961 20.8434 34.5961 20.9582H33.874L33.7427 21.1059C33.5408 21.0861 33.3374 21.0861 33.1355 21.1059C33.0042 21.1059 32.8565 21.2536 32.8729 21.3028C32.9713 21.631 32.8729 21.8935 32.2492 22.1068C31.9866 22.2217 32.0851 22.5006 32.4133 22.5499C32.6315 22.5742 32.8517 22.5742 33.0698 22.5499C33.4419 22.4508 33.8369 22.4856 34.1858 22.6483L34.9736 23.0257L35.3675 23.2226C35.5316 23.1406 35.6629 23.0093 35.8106 23.0093C35.9583 23.0093 36.4999 22.6975 36.4178 23.1077C36.4178 23.1077 36.8281 23.1077 37.0415 23.1077C37.2548 23.1077 37.8621 23.1078 38.256 23.0093C38.256 23.0093 38.4037 23.0093 38.5185 23.0093C38.6713 23.0261 38.8254 23.0261 38.9781 23.0093C39.1258 22.7796 39.5689 22.8944 39.8479 22.8288C40.0089 22.8369 40.1636 22.8941 40.291 22.9929C40.291 22.9929 40.1926 23.1242 40.1105 23.1898L39.6838 23.4687H39.9628C40.5044 23.4687 40.5208 23.7477 40.3403 23.8297C39.8151 24.0923 39.9464 24.404 39.9136 24.6994C39.8973 24.8576 39.8973 25.017 39.9136 25.1752C39.929 25.2787 39.9623 25.3786 40.012 25.4706L39.8151 26.0285L38.3052 26.1598V25.8808L37.6815 26.1598L35.8106 25.3229L35.2198 25.6675L35.1377 25.3557H35.0228V25.5526C34.2916 25.4535 33.5972 25.1713 33.0042 24.7322H32.8401L33.2011 24.9783L32.4298 25.0768H32.9057L29.3772 25.4378L29.8859 25.0932H29.771C29.572 25.1916 29.353 25.2427 29.131 25.2427C28.909 25.2427 28.6899 25.1916 28.4909 25.0932C28.2949 25.066 28.0961 25.066 27.9001 25.0932L28.015 25.4214L27.2929 25.7003L27.5062 25.9629C28.0844 25.7194 28.7012 25.5805 29.3279 25.5526ZM17.3801 20.2526C17.1832 20.0065 16.8385 20.2526 16.5759 20.2526C16.3133 20.2526 16.2641 20.4003 16.2805 20.466C16.2969 20.5316 16.6252 20.6464 16.6908 20.63C16.9271 20.5542 17.1575 20.4609 17.3801 20.3511C17.7248 20.4824 18.0202 20.6464 18.3977 20.7613C18.7751 20.8762 18.9557 21.1059 18.5946 21.3192L19.0705 21.5982V20.8598C19.3331 20.8598 19.5629 20.8598 19.7106 20.9746C19.8583 21.0895 19.9075 21.1551 20.0717 21.3192C20.1865 20.9418 20.3014 20.6629 19.4972 20.548C19.4972 20.548 19.366 20.466 19.3003 20.4331L18.3812 20.0393L18.2007 20.2198L17.3801 20.2526ZM21.2205 33.8718L20.6132 33.7898C19.5629 33.6749 18.5125 33.5437 17.4458 33.4452C17.2824 33.4223 17.1167 33.4223 16.9534 33.4452C16.9534 33.4452 16.9534 33.6093 17.1339 33.6421C17.9709 33.8882 18.7751 34.1672 19.645 34.3805C20.5871 34.5627 21.4778 34.9492 22.2544 35.5127L22.8617 36.1034L23.0258 35.4963C23.0258 35.1681 23.4853 34.8564 23.1571 34.4954C23.1571 34.3969 23.354 34.2328 23.3212 34.1016C23.2884 33.9703 22.9766 33.5601 23.0586 33.3139C23.1407 33.0678 22.714 32.6904 23.3048 32.4279C23.3048 32.4279 23.3048 32.3294 23.2227 32.2802L22.9109 31.87L23.3048 31.9684C23.4689 31.4434 23.3048 31.3121 22.6976 31.1808L22.796 31.509L22.2708 31.4269V31.8864L22.0903 32.3786L20.6625 31.2793L20.3507 31.4926H20.2194L20.564 31.2136L21.2205 31.4434C21.1807 31.3473 21.1253 31.2586 21.0564 31.1808C20.92 31.0938 20.7774 31.017 20.6297 30.9511L20.3999 31.1316H20.2358C20.2358 31.0167 20.2358 30.8855 20.2358 30.787C20.2358 30.6886 20.0552 30.4916 19.645 30.6065L19.924 30.9347C19.3659 30.9347 19.1854 30.9347 19.2347 31.2464C19.2839 31.5582 19.0541 31.4434 18.9064 31.591L18.7259 31.1808H18.5946V31.7715L18.2664 31.9028C18.4461 31.9697 18.6336 32.0138 18.8244 32.0341C18.9945 32.0077 19.1602 31.958 19.3167 31.8864L19.2018 31.8043H18.9064C19.0377 31.5746 19.3824 31.5254 19.7598 31.5418C19.8789 31.5709 19.9872 31.6335 20.0717 31.7223C19.8911 31.8372 19.8583 32.0505 19.3824 31.9848C19.3824 31.9848 19.169 31.9848 19.0377 32.0997L19.7763 32.2966V32.1325H19.9732C19.9732 32.231 19.8747 32.3951 19.7763 32.4115C19.2018 32.5709 18.5947 32.5709 18.0202 32.4115L17.1175 32.8217C17.1175 32.8217 17.3309 32.9694 17.2816 33.035C17.2324 33.1006 17.4129 33.396 17.8889 33.4288C18.3648 33.4616 18.5454 33.4288 18.8572 33.5273L21.2205 33.8718ZM23.5017 19.6947C23.7971 19.5471 24.2567 19.4158 24.3223 19.2353C24.509 18.7051 24.6302 18.154 24.6834 17.5944C24.7507 17.165 24.7945 16.7323 24.8147 16.2982C24.9052 16.0547 24.9052 15.7868 24.8147 15.5434C24.4062 15.0574 24.0893 14.5015 23.8792 13.9025C23.682 13.3188 23.5606 12.7122 23.5181 12.0975C23.5181 11.6545 23.1735 11.3263 22.6319 11.0146L22.2873 11.5068L22.1067 11.4904C21.7733 11.4722 21.4391 11.4722 21.1056 11.4904C20.7988 11.5736 20.5018 11.6891 20.2194 11.835L20.0717 11.556H19.8911C19.9408 11.6363 19.9743 11.7255 19.9896 11.8186C20.0049 11.9219 20.0049 12.027 19.9896 12.1303C19.4316 12.0155 19.645 12.2616 19.5465 12.3601C19.4598 12.4301 19.4014 12.5292 19.3824 12.639C19.3824 12.639 19.4808 12.7703 19.5301 12.8359L19.6942 12.7539L19.924 12.5077C20.08 12.6641 20.2813 12.7672 20.4993 12.8026C20.7174 12.8379 20.941 12.8037 21.1384 12.7047C21.5005 12.6234 21.876 12.6234 22.238 12.7047C22.5934 12.7229 22.9494 12.7229 23.3048 12.7047C23.4033 13.1641 23.5181 13.6564 23.6002 14.1486C23.6002 14.1486 23.3376 14.2471 23.1407 14.3291C24.1746 14.5588 24.0433 15.0839 24.2567 15.5269C24.6013 16.2653 24.5685 16.2817 24.0269 16.8232C23.9463 16.7498 23.8513 16.6939 23.7479 16.6591H23.2227L23.5674 16.3966L23.1571 16.1012V16.3146L22.8617 15.97H22.6811C22.7955 16.2833 22.927 16.59 23.075 16.8889C23.1899 17.1022 23.075 17.2991 22.6319 17.3647H22.2216C22.2216 17.7421 22.2216 18.1359 22.4021 18.4969C22.7176 18.9402 23.087 19.3426 23.5017 19.6947V19.6947ZM30.2798 34.4625L27.9822 34.7087L28.6386 34.8728C28.3551 34.9059 28.0687 34.9059 27.7852 34.8728C27.0253 34.6362 26.2177 34.5966 25.4383 34.7579C24.5685 34.9056 24.4536 34.9384 24.4208 35.3814C24.4208 36.1526 24.4208 36.9074 24.3223 37.6622C24.3081 37.7271 24.3081 37.7943 24.3223 37.8591C24.9418 37.4207 25.6011 37.0416 26.2917 36.7269C27.6703 36.169 29.1802 35.7096 30.6409 35.2009C30.9416 35.1226 31.2332 35.0126 31.5107 34.8728C31.5107 34.8728 31.2809 34.6595 31.2317 34.5282C31.1825 34.3969 30.887 34.2328 30.5424 34.5282C30.5588 34.561 30.3947 34.4625 30.2798 34.4625ZM26.341 16.413C26.2425 16.413 26.1112 16.6756 26.0292 16.6756C25.307 16.6756 25.2578 16.9053 25.2414 17.0858C25.2414 17.8242 25.2414 18.579 25.2414 19.3338H26.1276L26.0292 19.2353C26.2031 19.1323 26.3911 19.0549 26.5871 19.0056C26.789 18.9968 26.9888 19.0483 27.1613 19.1535C27.3337 19.2587 27.4709 19.4129 27.5555 19.5963C28.8356 19.465 28.9833 18.8743 29.6069 18.5297C29.0653 18.3821 29.4264 18.218 29.4264 18.0539L30.0829 18.1359C30.0829 17.7913 31.0676 17.578 30.4932 17.1678L29.9516 17.6108H29.8531L30.0172 17.3155H29.4756L28.8848 18.0703L28.294 17.7093L28.1134 17.8898H27.9165C27.9165 17.7421 27.7852 17.5944 27.736 17.4468C27.6867 17.2991 27.5719 17.0858 27.0303 17.1678L26.8826 16.5935H26.7677L26.341 16.413ZM24.8147 10.6043L24.9788 11.6053H24.2567C24.1582 11.7365 24.0105 11.8514 24.0105 11.9499C23.9775 12.2827 23.9775 12.618 24.0105 12.9508C24.0105 12.9508 24.191 13.1641 24.109 13.2133C23.6823 13.5251 24.109 13.6564 24.5193 13.7712L24.9296 13.1313H25.6189C25.7994 12.9016 25.9471 12.7047 26.062 12.5242C26.1769 12.3437 26.3738 12.3108 26.062 12.2452C26.0484 12.2362 26.0373 12.224 26.0296 12.2097C26.022 12.1954 26.0179 12.1794 26.0179 12.1632C26.0179 12.1469 26.022 12.1309 26.0296 12.1166C26.0373 12.1023 26.0484 12.0901 26.062 12.0811C26.1797 12.0455 26.3053 12.0455 26.423 12.0811C26.6364 12.0811 26.8497 12.0811 27.0467 12.1796L27.4242 11.9499L28.3596 12.1632C28.3596 11.835 28.573 11.4904 28.3596 11.2935C27.8643 11.1284 27.3287 11.1284 26.8333 11.2935L26.3902 10.6864H26.144L25.6024 12.0319H25.4219L25.7666 11.113C25.865 10.67 25.6189 10.5387 24.8147 10.5551V10.6043ZM24.8147 32.8545C24.1582 33.0186 24.0105 33.9375 24.4372 34.8892C25.3732 34.6098 26.3588 34.537 27.3257 34.6759L27.736 34.0195L27.4734 34.118C27.3749 34.118 27.3257 34.0195 27.2272 34.0031C26.702 33.9211 26.6364 33.839 26.9154 33.6257C27.1944 33.4124 27.0795 33.4452 27.1616 33.3632C26.5543 33.5929 26.5707 33.2811 26.3738 33.1991L25.8979 33.3796L25.6024 33.0514L24.9952 33.5765H24.8147V32.8545ZM21.7621 20.8762H21.4667C21.4819 20.7622 21.5151 20.6515 21.5651 20.548C21.6692 20.4683 21.7952 20.4225 21.9262 20.4167C22.0903 20.4167 22.3529 20.4988 22.3693 20.5644C22.3857 20.63 22.6811 20.7449 22.9766 20.7121H23.633L23.272 20.4331L23.1407 20.0721C22.8939 19.4915 22.428 19.0316 21.8441 18.7923C21.7864 19.0244 21.6922 19.2459 21.5651 19.4486C21.4338 19.6291 21.7457 19.8588 21.319 20.0229C21.0092 20.1456 20.7077 20.2881 20.4163 20.4495C20.3014 20.4495 20.1865 20.6629 20.2522 20.7285C20.4459 20.8979 20.6486 21.0567 20.8594 21.2043L21.7621 20.8762ZM25.6189 30.5901L24.7983 30.8855C24.6177 30.9675 24.3716 31.0495 24.3223 31.148C24.2508 31.3365 24.2173 31.5372 24.2239 31.7387C24.473 31.6983 24.7196 31.6435 24.9624 31.5746C25.2475 31.4646 25.5635 31.4646 25.8486 31.5746C26.0456 31.6731 26.0948 31.8536 26.2261 31.9848C26.3329 32.1024 26.4481 32.2121 26.5707 32.313L27.0959 31.9684C27.0959 31.7879 26.9482 31.5582 27.0959 31.4434C27.2436 31.3285 27.3257 31.0495 27.0959 30.8526H27.1287L26.144 30.4424V30.8198L25.6189 30.5901ZM22.3365 25.6675H22.1067C22.3398 26.3108 22.6083 26.9408 22.9109 27.5545C23.2028 28.2138 23.2886 28.9459 23.1571 29.6548C23.1571 29.983 22.9437 30.3276 23.3868 30.6393C23.5326 30.2746 23.5998 29.8832 23.5838 29.4907C23.5838 29.0805 23.4197 28.6703 23.3704 28.2601C23.3212 27.8499 23.3704 27.8827 23.3704 27.7022C23.3704 27.2263 23.8628 26.7833 23.7971 26.3074C23.7971 26.1926 23.6987 26.0777 23.7151 25.9629C23.7971 25.5034 23.912 25.044 24.0105 24.5845H23.6987C23.6313 24.6813 23.5762 24.786 23.5346 24.8963C23.5592 25.2897 23.5592 25.6843 23.5346 26.0777C23.4723 26.4659 23.3846 26.8496 23.272 27.2263H23.0258L22.3365 25.6675ZM13.8352 21.9263L13.3921 21.7458C13.0595 21.928 12.7071 22.0712 12.3417 22.1725C11.9211 22.2045 11.4986 22.2045 11.078 22.1725C10.899 22.2892 10.706 22.3829 10.5036 22.4514C10.2854 22.4761 10.0652 22.4761 9.84709 22.4514C9.95396 22.5235 10.0793 22.5633 10.2082 22.5663H11.0616H13.1787C13.6054 22.5663 13.9172 22.5663 14.0485 22.2545C14.1798 21.9427 14.3603 21.8935 15.1481 22.0248H15.4928C15.3286 21.4341 15.3286 21.4341 14.1142 21.5489L13.8352 21.9263ZM21.1713 22.5499C21.6144 22.5499 21.959 22.6483 22.3037 22.6647H22.9273C22.9273 22.517 23.354 22.3365 22.6811 22.2381L23.4197 22.1232V21.9263H23.2884L22.9109 21.7294C22.6971 21.7954 22.4772 21.8394 22.2544 21.8607C22.0198 21.7949 21.7939 21.7012 21.5815 21.5817C20.7281 21.5817 20.9087 21.8115 21.0235 22.074C21.0999 22.2336 21.1657 22.398 21.2205 22.5663L21.1713 22.5499ZM13.95 25.9957C13.7335 26.0136 13.5192 26.0521 13.31 26.1105C13.2788 26.1439 13.2615 26.1879 13.2615 26.2336C13.2615 26.2793 13.2788 26.3233 13.31 26.3567C13.7839 26.7066 14.3624 26.8859 14.9512 26.8653C15.0623 26.8588 15.1673 26.8122 15.2466 26.7341C15.3779 26.4879 15.2466 26.2582 14.8363 26.0777C14.6816 26.0025 14.5334 25.9147 14.3932 25.8152L13.95 25.9957ZM5.74414 32.5591C6.36779 32.3622 5.74414 32.1489 5.74414 31.952C5.74414 31.7551 5.85902 31.5418 5.90825 31.3449C5.79726 31.3486 5.68941 31.3826 5.59643 31.4434C5.36667 31.5418 4.98919 31.6238 5.38308 31.8043L4.90714 32.0341C4.80867 32.3294 4.95637 32.4115 5.84261 32.5099L5.74414 32.5591ZM19.3824 29.5399C18.053 29.7204 18.7751 29.1954 18.4305 29.0477L17.495 29.261L18.3156 29.4087C18.3156 29.5564 18.1351 29.704 18.1679 29.8517C18.2007 29.9994 18.3977 30.065 18.5782 30.1143C18.7383 30.1657 18.9105 30.1657 19.0705 30.1143C19.1969 29.9359 19.3016 29.7431 19.3824 29.5399ZM17.9381 18.2836L17.4786 18.0539L16.3134 18.3821C15.9851 18.0539 15.4599 18.3821 15.0825 18.2672C15.4039 18.4557 15.7612 18.5749 16.1314 18.6173C16.5017 18.6597 16.8767 18.6243 17.2324 18.5133C17.4586 18.4112 17.6952 18.3342 17.9381 18.2836V18.2836ZM20.2358 21.3356H19.9732L20.0717 21.5653C20.0717 21.6638 20.203 21.7786 20.1701 21.8771C20.1088 22.0978 20.0263 22.3121 19.924 22.517H20.6789C20.6613 22.086 20.506 21.672 20.2358 21.3356ZM16.2969 19.5963C15.6241 19.5963 15.8538 19.3502 15.821 19.1533L14.8855 19.6947L15.4271 19.9737L15.8046 19.6947L15.9195 19.8752L16.2969 19.5963ZM22.4842 23.2882C22.3171 23.3127 22.1525 23.3511 21.9918 23.4031C21.9918 23.4031 21.9918 23.5344 21.9918 23.6C21.9945 23.6686 22.024 23.7334 22.0739 23.7805C22.1377 23.8661 22.2225 23.9339 22.3201 23.9774C22.4336 24.0023 22.5512 24.0023 22.6647 23.9774C22.7002 23.9514 22.728 23.9164 22.7453 23.876C22.7626 23.8356 22.7688 23.7913 22.7632 23.7477C22.7115 23.5863 22.6398 23.4319 22.5498 23.2882H22.4842ZM15.1809 25.3393C15.5092 25.2245 15.8702 25.1096 16.1821 24.9783C16.4939 24.8471 16.1821 24.8471 16.1821 24.7978H15.9195C15.9195 25.0604 15.2958 25.0112 14.984 25.1096C14.9692 25.1314 14.9613 25.1571 14.9613 25.1834C14.9613 25.2098 14.9692 25.2355 14.984 25.2573C14.984 25.2573 15.0661 25.2901 15.2466 25.3393H15.1809ZM26.0456 25.3393C25.865 25.4378 25.6517 25.487 25.6681 25.5526C25.6845 25.6183 25.6681 25.8972 26.0784 25.9465C26.3902 25.5198 26.3246 25.2081 25.9471 25.1096L26.0456 25.3393ZM16.7893 13.6399C17.1011 13.0985 17.0519 12.9508 16.6416 12.918L16.2149 13.2461L16.7893 13.6399ZM17.5606 14.3291C18.2007 14.1158 17.6919 13.8369 17.774 13.5743C17.1504 13.7876 17.4129 14.0502 17.5606 14.3291ZM25.0608 21.0731H25.307L25.6189 20.3347H25.0608V21.0731ZM31.9702 17.4468C31.2317 17.4468 30.526 17.7421 30.4275 18.1195L31.9702 17.4468ZM24.9131 25.848C26.1276 25.5855 24.9131 25.3229 24.9131 25.0768V25.848ZM26.144 15.8879C26.144 16.0848 26.4887 16.1833 26.7513 16.3638L27.2108 15.8879H26.144ZM31.5271 33.2811L31.2973 33.1827L30.8378 33.5765C31.5271 33.7242 31.5271 33.7242 31.4943 33.2811H31.5271ZM24.6013 29.9994L25.1921 30.2783C25.2493 30.1852 25.3214 30.1021 25.4055 30.0322C25.5111 29.9471 25.6269 29.8755 25.7502 29.8189L24.6013 29.9994ZM11.997 17.8406L11.8822 17.9226L12.555 18.1851L12.8505 17.8734L11.997 17.8406ZM16.1328 13.5087H15.9687L16.8057 14.0009C16.9206 13.6892 16.4282 13.6235 16.1 13.4923L16.1328 13.5087ZM18.2335 18.7102C18.4141 18.9892 18.3977 19.3502 19.1034 19.5635L18.2335 18.7102ZM23.9449 8.20868V8.30713L24.6013 8.45481V8.11023L23.9449 8.20868ZM22.3037 30.5737H23.0258C23.0258 30.3768 22.9109 30.1963 22.3037 30.2783V30.5737ZM22.0739 31.0003C21.6964 31.1972 21.7949 31.5254 22.2052 31.7551L22.0739 31.0003ZM22.9766 23.3375L23.4197 22.796H22.7632L22.9766 23.3375Z" fill="var(--fill-0, #F9FAFB)"/>
<path id="Vector_2" d="M22.2871 31.8691C22.5007 32.1725 22.6927 32.4905 22.8616 32.8208C22.9124 32.8803 22.9404 32.9559 22.9404 33.0342C22.9404 33.1124 22.9124 33.188 22.8616 33.2475C22.4841 33.5756 22.6318 33.8546 22.8616 34.1664C23.0913 34.4781 23.0093 34.8391 22.7467 35.2329C22.361 34.6212 21.7841 34.154 21.1055 33.9038L21.7291 34.0187L22.402 34.1171L22.2871 31.8691Z" fill="var(--fill-0, #F9FAFB)"/>
</g>
</svg>
