<svg preserveAspectRatio="none" width="100%" height="100%" overflow="visible" style="display: block;" viewBox="0 0 116.416 20" fill="none" xmlns="http://www.w3.org/2000/svg">
<g id="Group 1445">
<path id="Vector" d="M54.6121 15.7377V13.8537L60.7174 7.76596H54.983C54.8955 7.76596 54.8117 7.73122 54.7498 7.66939C54.688 7.60756 54.6533 7.5237 54.6533 7.43625V5.88784C54.6533 5.80039 54.688 5.71653 54.7498 5.6547C54.8117 5.59287 54.8955 5.55814 54.983 5.55814H63.6494C63.7358 5.55968 63.8182 5.59509 63.8788 5.65676C63.9393 5.71842 63.9732 5.80141 63.9732 5.88784V7.76596L57.8561 13.8537H63.6435C63.731 13.8537 63.8148 13.8884 63.8767 13.9502C63.9385 14.0121 63.9732 14.0959 63.9732 14.1834V15.7377C63.9717 15.8241 63.9363 15.9065 63.8746 15.967C63.8129 16.0276 63.73 16.0615 63.6435 16.0615H54.9418C54.8553 16.0615 54.7723 16.0276 54.7107 15.967C54.649 15.9065 54.6136 15.8241 54.6121 15.7377Z" fill="var(--fill-0, #6B7280)"/>
<path id="Vector_2" d="M67.5245 4.17441C67.308 4.17441 67.0936 4.13177 66.8936 4.04892C66.6936 3.96608 66.5119 3.84465 66.3588 3.69157C66.2057 3.53849 66.0843 3.35676 66.0015 3.15675C65.9186 2.95674 65.876 2.74237 65.876 2.52588C65.8724 2.30713 65.9134 2.08994 65.9964 1.88751C66.0793 1.68508 66.2026 1.50165 66.3588 1.34837C66.5112 1.19113 66.6945 1.06708 66.8971 0.984C67.0997 0.900922 67.3173 0.860615 67.5363 0.865594C67.7549 0.862694 67.9719 0.903954 68.1743 0.98691C68.3766 1.06987 68.5601 1.19281 68.7138 1.34837C68.8726 1.50022 68.9984 1.68312 69.0835 1.8857C69.1686 2.08827 69.2111 2.30618 69.2083 2.52588C69.2125 2.74579 69.1707 2.96414 69.0855 3.16692C69.0003 3.3697 68.8737 3.55243 68.7138 3.7034C68.5577 3.85828 68.3718 3.97989 68.1674 4.06085C67.963 4.14181 67.7443 4.18044 67.5245 4.17441V4.17441Z" fill="var(--fill-0, #6B7280)"/>
<path id="Vector_3" d="M68.5005 5.55814H66.5399C66.3578 5.55814 66.2102 5.70575 66.2102 5.88784V15.7318C66.2102 15.9139 66.3578 16.0615 66.5399 16.0615H68.5005C68.6826 16.0615 68.8302 15.9139 68.8302 15.7318V5.88784C68.8302 5.70575 68.6826 5.55814 68.5005 5.55814Z" fill="var(--fill-0, #6B7280)"/>
<path id="Vector_4" d="M71.2385 19.6585V5.88756C71.2385 5.80113 71.2725 5.71815 71.333 5.65649C71.3936 5.59482 71.4759 5.55941 71.5624 5.55786H73.5053C73.5927 5.55786 73.6766 5.5926 73.7384 5.65443C73.8002 5.71626 73.835 5.80012 73.835 5.88756V6.41155C73.8356 6.444 73.8459 6.47553 73.8644 6.50218C73.8829 6.52883 73.9089 6.54941 73.9391 6.56136C73.9693 6.5733 74.0023 6.57608 74.0341 6.56933C74.0658 6.56258 74.0948 6.54661 74.1176 6.52342C74.4817 6.15385 74.9108 5.85449 75.3834 5.64029C76.0052 5.36142 76.6801 5.2208 77.3616 5.22815C78.2888 5.21015 79.2018 5.45731 79.9933 5.94055C80.7579 6.42411 81.3702 7.11397 81.7596 7.93054C82.1987 8.82998 82.4186 9.82058 82.4013 10.8213C82.4217 11.8224 82.2017 12.8137 81.7596 13.7121C81.3619 14.5221 80.7461 15.2051 79.9816 15.6844C79.1867 16.1649 78.2726 16.4117 77.3439 16.3968C76.6671 16.4027 75.9974 16.2579 75.3834 15.9729C74.7856 15.7013 74.2565 15.2989 73.835 14.7954V19.6703C73.8334 19.7573 73.7982 19.8402 73.7367 19.9018C73.6752 19.9633 73.5922 19.9985 73.5053 20H71.5624C71.5186 19.9992 71.4753 19.9898 71.4352 19.9721C71.3951 19.9545 71.3589 19.929 71.3288 19.8972C71.2986 19.8654 71.2751 19.8279 71.2596 19.787C71.2442 19.746 71.237 19.7023 71.2385 19.6585V19.6585ZM76.7905 14.1242C77.3297 14.1341 77.8613 13.9956 78.3272 13.7239C78.7836 13.4433 79.1463 13.0335 79.3693 12.5464C79.6296 11.9948 79.7566 11.3898 79.7402 10.7801C79.7806 9.90321 79.493 9.04268 78.9336 8.36621C78.6523 8.07907 78.3166 7.85095 77.9461 7.69521C77.5756 7.53948 77.1777 7.45926 76.7758 7.45926C76.3739 7.45926 75.976 7.53948 75.6055 7.69521C75.2349 7.85095 74.8992 8.07907 74.618 8.36621C74.0607 9.04353 73.7752 9.90397 73.8173 10.7801C73.8008 11.3898 73.9279 11.9948 74.1882 12.5464C74.4112 13.0335 74.7739 13.4433 75.2303 13.7239C75.7042 13.9969 76.2437 14.1354 76.7905 14.1242V14.1242Z" fill="var(--fill-0, #6B7280)"/>
<path id="Vector_5" d="M84.0155 15.7383V1.43156C84.0155 1.34411 84.0503 1.26025 84.1121 1.19842C84.1739 1.13659 84.2578 1.10186 84.3452 1.10186H86.2646C86.352 1.10186 86.4359 1.13659 86.4977 1.19842C86.5595 1.26025 86.5943 1.34411 86.5943 1.43156V15.7383C86.5927 15.8247 86.5573 15.9071 86.4956 15.9676C86.434 16.0282 86.351 16.0621 86.2646 16.0621H84.3452C84.2588 16.0621 84.1758 16.0282 84.1142 15.9676C84.0525 15.9071 84.0171 15.8247 84.0155 15.7383V15.7383Z" fill="var(--fill-0, #6B7280)"/>
<path id="Vector_6" d="M90.579 4.17441C90.1418 4.17441 89.7225 4.00072 89.4133 3.69157C89.1042 3.38241 88.9305 2.9631 88.9305 2.52588C88.9269 2.30713 88.9679 2.08994 89.0509 1.88751C89.1339 1.68508 89.2572 1.50165 89.4133 1.34837C89.5657 1.19113 89.749 1.06708 89.9516 0.984C90.1542 0.900922 90.3719 0.860615 90.5908 0.865594C90.8094 0.862694 91.0264 0.903954 91.2288 0.98691C91.4311 1.06987 91.6146 1.19281 91.7683 1.34837C91.9271 1.50022 92.053 1.68312 92.138 1.8857C92.2231 2.08827 92.2656 2.30618 92.2628 2.52588C92.267 2.74579 92.2252 2.96414 92.14 3.16692C92.0549 3.3697 91.9282 3.55243 91.7683 3.7034C91.6122 3.85828 91.4264 3.97989 91.2219 4.06085C91.0175 4.14181 90.7988 4.18044 90.579 4.17441V4.17441Z" fill="var(--fill-0, #6B7280)"/>
<path id="Vector_7" d="M91.538 5.55814H89.5774C89.3954 5.55814 89.2477 5.70575 89.2477 5.88784V15.7318C89.2477 15.9139 89.3954 16.0615 89.5774 16.0615H91.538C91.7201 16.0615 91.8677 15.9139 91.8677 15.7318V5.88784C91.8677 5.70575 91.7201 5.55814 91.538 5.55814Z" fill="var(--fill-0, #6B7280)"/>
<path id="Vector_8" d="M94.2758 15.7376V5.88775C94.2758 5.80131 94.3098 5.71833 94.3703 5.65667C94.4309 5.595 94.5132 5.55959 94.5996 5.55804H96.5425C96.63 5.55804 96.7138 5.59278 96.7757 5.65461C96.8375 5.71644 96.8722 5.8003 96.8722 5.88775V6.32931C96.8729 6.36176 96.8832 6.39328 96.9017 6.41993C96.9202 6.44658 96.9462 6.46717 96.9764 6.47911C97.0066 6.49106 97.0396 6.49383 97.0713 6.48708C97.1031 6.48033 97.1321 6.46437 97.1548 6.44118C97.4734 6.10506 97.8504 5.82974 98.2676 5.62869C98.8656 5.35444 99.5174 5.21763 100.175 5.22833C100.722 5.2013 101.268 5.29251 101.776 5.49572C102.284 5.69894 102.742 6.00937 103.119 6.40584C103.874 7.31954 104.256 8.48422 104.19 9.66755V15.7199C104.189 15.8064 104.153 15.8887 104.092 15.9493C104.03 16.0098 103.947 16.0438 103.861 16.0438H101.9C101.814 16.0438 101.731 16.0098 101.669 15.9493C101.607 15.8887 101.572 15.8064 101.57 15.7199V9.8324C101.612 9.17331 101.401 8.52316 100.982 8.01315C100.761 7.79679 100.496 7.6298 100.206 7.52323C99.9159 7.41666 99.6063 7.37294 99.2979 7.39495C98.8446 7.38606 98.398 7.50436 98.0085 7.73643C97.6268 7.96932 97.3217 8.30915 97.1313 8.71377C96.9162 9.18036 96.8095 9.68961 96.8193 10.2033V15.6964C96.8177 15.7828 96.7823 15.8652 96.7206 15.9257C96.659 15.9863 96.576 16.0202 96.4895 16.0202H94.5467C94.4769 16.0091 94.4126 15.9755 94.3637 15.9244C94.3148 15.8734 94.284 15.8078 94.2758 15.7376V15.7376Z" fill="var(--fill-0, #6B7280)"/>
<path id="Vector_9" d="M114.865 13.1179C114.805 13.0621 114.726 13.031 114.644 13.031C114.562 13.031 114.483 13.0621 114.423 13.1179C114.079 13.4132 113.699 13.6644 113.293 13.8657C112.742 14.1315 112.138 14.2684 111.527 14.266C110.752 14.3018 109.992 14.0525 109.389 13.5654C108.805 13.0163 108.46 12.2591 108.43 11.4577H116.084C116.169 11.4577 116.251 11.4246 116.313 11.3653C116.374 11.306 116.41 11.2251 116.413 11.1397V10.863C116.442 9.84038 116.241 8.82433 115.825 7.88981C115.444 7.07638 114.829 6.39555 114.058 5.93515C113.233 5.45712 112.291 5.21858 111.338 5.24631C110.33 5.22721 109.336 5.47935 108.459 5.97636C107.64 6.44832 106.975 7.14776 106.546 7.9899C106.098 8.87221 105.872 9.85019 105.886 10.8395C105.867 11.8391 106.106 12.8267 106.581 13.7067C107.027 14.5337 107.693 15.2206 108.506 15.6908C109.387 16.1873 110.386 16.4374 111.397 16.415C112.296 16.424 113.187 16.2518 114.017 15.9086C114.716 15.5981 115.352 15.1632 115.895 14.6252C115.957 14.5634 115.991 14.4798 115.991 14.3926C115.991 14.3054 115.957 14.2218 115.895 14.16L114.865 13.1179ZM109.495 7.95457C110.024 7.54946 110.678 7.34128 111.344 7.36582C111.974 7.33845 112.592 7.54854 113.075 7.95457C113.555 8.40743 113.844 9.02672 113.882 9.68551H108.495C108.616 9.00943 108.97 8.39711 109.495 7.95457V7.95457Z" fill="var(--fill-0, #6B7280)"/>
<path id="Vector_10" d="M41.421 13.3235L47.1613 19.0639C47.2369 19.1396 47.2884 19.2361 47.3093 19.3411C47.3301 19.446 47.3194 19.5549 47.2784 19.6537C47.2375 19.7526 47.1682 19.8372 47.0792 19.8967C46.9903 19.9562 46.8857 19.9881 46.7786 19.9882H35.0035C34.854 19.9861 34.7109 19.9272 34.6032 19.8234L28.3035 13.5237C28.2528 13.4729 28.2244 13.4041 28.2244 13.3323C28.2244 13.2606 28.2528 13.1918 28.3035 13.141L34.7798 6.6647L29.0454 0.918458C28.9692 0.843863 28.9171 0.74825 28.8956 0.643854C28.8741 0.539458 28.8842 0.43102 28.9246 0.332408C28.9651 0.233796 29.034 0.149494 29.1227 0.0902801C29.2113 0.0310659 29.3156 -0.000364388 29.4222 3.18758e-06H41.1972C41.3447 0.0035855 41.4855 0.0624175 41.5917 0.164854L47.8973 6.47041C47.9479 6.52118 47.9764 6.59001 47.9764 6.66176C47.9764 6.73351 47.9479 6.80232 47.8973 6.8531L41.421 13.3235Z" fill="var(--fill-0, #6792FF)"/>
<path id="Vector_11" d="M47.8859 6.48299C47.9366 6.53376 47.9651 6.60258 47.9651 6.67433C47.9651 6.74608 47.9366 6.81491 47.8859 6.86568L41.4096 13.342L34.9333 19.8183C34.9087 19.8432 34.8794 19.863 34.847 19.8765C34.8147 19.89 34.78 19.8969 34.7449 19.8969C34.7099 19.8969 34.6752 19.89 34.6429 19.8765C34.6105 19.863 34.5812 19.8432 34.5565 19.8183L28.2922 13.5245C28.2415 13.4737 28.213 13.4049 28.213 13.3331C28.213 13.2614 28.2415 13.1926 28.2922 13.1418L34.7685 6.6655L41.2448 0.1892C41.2694 0.164278 41.2988 0.144498 41.3311 0.130994C41.3635 0.117491 41.3981 0.110539 41.4332 0.110539C41.4682 0.110539 41.5029 0.117491 41.5353 0.130994C41.5676 0.144498 41.597 0.164278 41.6216 0.1892L47.8859 6.48299Z" fill="var(--fill-0, #2851F0)"/>
<path id="Vector_12" d="M6.07005 16.3914C5.39565 16.3979 4.72816 16.2551 4.11539 15.9734C3.52036 15.7 2.99349 15.2978 2.57286 14.7959V16.0676H0V1.1309H2.57286V6.85948C2.9877 6.35157 3.51607 5.94823 4.11539 5.68197C4.73721 5.4031 5.41215 5.26249 6.0936 5.26985C7.00928 5.24447 7.91286 5.48368 8.69604 5.9588C9.47922 6.43393 10.1088 7.12483 10.5093 7.94868C10.9435 8.8475 11.1613 9.83549 11.1451 10.8336C11.1639 11.8319 10.946 12.8205 10.5093 13.7185C10.1048 14.5279 9.48303 15.2088 8.71356 15.6849C7.9165 16.1646 7.00017 16.4095 6.07005 16.3914V16.3914ZM5.54018 14.1306C6.07834 14.1406 6.60857 13.9999 7.07093 13.7244C7.5241 13.453 7.88673 13.0535 8.11303 12.5763C8.37274 12.0245 8.49976 11.4197 8.48395 10.81C8.52688 9.93457 8.23895 9.07498 7.67735 8.40202C7.407 8.10007 7.07286 7.86206 6.69914 7.70524C6.32542 7.54842 5.92149 7.47672 5.51662 7.49534C5.11453 7.47813 4.71365 7.55055 4.343 7.70736C3.97234 7.86418 3.64121 8.10145 3.37356 8.40202C2.81407 9.07584 2.52828 9.93534 2.57286 10.81C2.55704 11.4197 2.68406 12.0245 2.94377 12.5763C3.16967 13.052 3.52989 13.4511 3.97998 13.7244C4.45211 14.0023 4.99244 14.143 5.54018 14.1306V14.1306Z" fill="var(--fill-0, #6B7280)"/>
<path id="Vector_13" d="M12.5688 19.9763V17.692H13.5402C13.9271 17.7178 14.3134 17.632 14.653 17.4447C14.9249 17.2403 15.1299 16.9595 15.2417 16.6381L15.4654 16.0494L11.1616 5.5872H13.8228L16.7666 13.0232L19.6691 5.5872H22.3244L17.5143 17.2799C17.2178 18.1168 16.6762 18.8451 15.96 19.3699C15.2277 19.7971 14.3869 20.0017 13.5402 19.9587L12.5688 19.9763Z" fill="var(--fill-0, #6B7280)"/>
</g>
</svg>
