<svg viewBox="0 0 22.334 22.757" fill="none" xmlns="http://www.w3.org/2000/svg">
  <path d="M14.9195 15.1619L21.4042 21.7079C21.4892 21.7939 21.5471 21.9033 21.5705 22.0224C21.5939 22.1416 21.5819 22.265 21.5358 22.3772C21.4897 22.4894 21.4117 22.5853 21.3117 22.6529C21.2116 22.7205 21.0939 22.7568 20.9734 22.7571H7.65544C7.57219 22.7573 7.4897 22.741 7.4127 22.7091C7.33571 22.6771 7.26571 22.6302 7.20673 22.571L0.0887768 15.3842C0.0606339 15.3558 0.0383072 15.3222 0.023074 15.2852C0.00784089 15.2481 0 15.2085 0 15.1684C0 15.1283 0.00784089 15.0886 0.023074 15.0516C0.0383072 15.0145 0.0606339 14.9809 0.0887768 14.9526L7.39647 7.58225L0.906725 1.03371C0.825602 0.947443 0.771136 0.839252 0.749967 0.722328C0.728798 0.605403 0.741841 0.484797 0.787506 0.375215C0.833172 0.265633 0.909486 0.17181 1.00714 0.105185C1.1048 0.0385605 1.21958 0.00201316 1.33749 0H14.6708C14.8381 0.000211755 14.9985 0.0671012 15.117 0.186068L22.2452 7.37292C22.2733 7.40124 22.2957 7.43488 22.3109 7.47191C22.3261 7.50893 22.334 7.54862 22.334 7.58871C22.334 7.62879 22.3261 7.66848 22.3109 7.70551C22.2957 7.74254 22.2733 7.77617 22.2452 7.80449L14.9195 15.1619Z" fill="white" fill-opacity="0.7"/>
  <path d="M22.2324 7.36739C22.2604 7.39549 22.2827 7.42891 22.2979 7.46572C22.3131 7.50253 22.3209 7.54201 22.3209 7.58188C22.3209 7.62175 22.3131 7.66123 22.2979 7.69805C22.2827 7.73486 22.2604 7.76828 22.2324 7.79638L14.9195 15.1615L7.60416 22.5319C7.57628 22.5602 7.54312 22.5826 7.5066 22.5979C7.47007 22.6133 7.4309 22.6211 7.39134 22.6211C7.35178 22.6211 7.31261 22.6133 7.27609 22.5979C7.23956 22.5826 7.2064 22.5602 7.17852 22.5319L0.0887768 15.3838C0.0606339 15.3555 0.0383072 15.3218 0.023074 15.2848C0.00784089 15.2478 0 15.2081 0 15.168C0 15.1279 0.00784089 15.0882 0.023074 15.0512C0.0383072 15.0142 0.0606339 14.9805 0.0887768 14.9522L7.39134 7.58188L14.7042 0.211545C14.7323 0.183181 14.7656 0.160679 14.8024 0.145326C14.8391 0.129973 14.8785 0.12207 14.9183 0.12207C14.958 0.12207 14.9974 0.129973 15.0342 0.145326C15.0709 0.160679 15.1043 0.183181 15.1324 0.211545L22.2324 7.36739Z" fill="white"/>
</svg>
