<svg preserveAspectRatio="none" width="100%" height="100%" overflow="visible" style="display: block;" viewBox="0 0 99.6677 22.7571" fill="none" xmlns="http://www.w3.org/2000/svg">
<g id="Layer 1">
<path id="Vector" d="M29.832 17.9685V15.7642L36.7295 8.82797H30.1833C30.1017 8.82797 30.0234 8.7953 29.9657 8.73714C29.908 8.67898 29.8756 8.60011 29.8756 8.51786V6.62359C29.8756 6.54134 29.908 6.46246 29.9657 6.40431C30.0234 6.34615 30.1017 6.31348 30.1833 6.31348H40.1064C40.188 6.31348 40.2663 6.34615 40.324 6.40431C40.3817 6.46246 40.4141 6.54134 40.4141 6.62359V8.82797L33.491 15.7642H40.1013C40.1829 15.7642 40.2611 15.7968 40.3188 15.855C40.3765 15.9131 40.409 15.992 40.409 16.0743V17.9685C40.409 18.0508 40.3765 18.1297 40.3188 18.1878C40.2611 18.246 40.1829 18.2786 40.1013 18.2786H30.1397C30.0581 18.2786 29.9799 18.246 29.9222 18.1878C29.8644 18.1297 29.832 18.0508 29.832 17.9685V17.9685Z" fill="var(--fill-0, #000014)"/>
<path id="Vector_2" d="M44.4247 4.73732C43.9302 4.73528 43.4566 4.53641 43.107 4.18403C42.7573 3.83165 42.56 3.3543 42.558 2.85597C42.5529 2.60485 42.599 2.35535 42.6934 2.12288C42.7878 1.89041 42.9284 1.67992 43.1067 1.5044C43.2772 1.32625 43.4821 1.18526 43.7088 1.09013C43.9355 0.995008 44.1791 0.947777 44.4247 0.951362C44.6716 0.948782 44.9165 0.99643 45.1447 1.09145C45.3729 1.18648 45.5798 1.32693 45.7529 1.5044C45.9348 1.67774 46.0788 1.88755 46.1755 2.12031C46.2722 2.35308 46.3195 2.60367 46.3144 2.85597C46.3176 3.10455 46.2692 3.35107 46.1726 3.57978C46.0759 3.80849 45.9329 4.01437 45.7529 4.18428C45.5801 4.36223 45.3733 4.503 45.145 4.59806C44.9167 4.69312 44.6717 4.74049 44.4247 4.73732V4.73732Z" fill="var(--fill-0, #000014)"/>
<path id="Vector_3" d="M45.5865 6.31348H43.2403C43.0704 6.31348 42.9326 6.45232 42.9326 6.62359V17.9711C42.9326 18.1424 43.0704 18.2812 43.2403 18.2812H45.5865C45.7564 18.2812 45.8942 18.1424 45.8942 17.9711V6.62359C45.8942 6.45232 45.7564 6.31348 45.5865 6.31348Z" fill="var(--fill-0, #000014)"/>
<path id="Vector_4" d="M48.6192 22.4371V6.62399C48.6192 6.54174 48.6517 6.46286 48.7094 6.4047C48.7671 6.34655 48.8453 6.31387 48.9269 6.31387H51.2346C51.3162 6.31387 51.3945 6.34655 51.4522 6.4047C51.5099 6.46286 51.5423 6.54174 51.5423 6.62399V7.28298C51.5422 7.32016 51.5532 7.35653 51.5738 7.38738C51.5944 7.41823 51.6237 7.44215 51.6579 7.45606C51.6921 7.46997 51.7297 7.47322 51.7657 7.4654C51.8018 7.45758 51.8347 7.43905 51.8603 7.41219C52.2722 6.99171 52.7571 6.65098 53.291 6.40691C53.9939 6.09304 54.7556 5.93528 55.5244 5.94432C56.5722 5.92465 57.6038 6.20612 58.4987 6.75578C59.3703 7.30512 60.0699 8.09174 60.5167 9.02477C61.0109 10.0498 61.2586 11.1777 61.2397 12.3171C61.2618 13.4561 61.0139 14.5839 60.5167 15.6069C60.0634 16.5327 59.3605 17.311 58.4885 17.8526C57.5884 18.4011 56.5529 18.6824 55.5013 18.6641C54.7367 18.6701 53.9803 18.506 53.2859 18.1834C52.6107 17.8682 52.0134 17.4056 51.5372 16.8293V22.4449C51.5372 22.4856 51.5292 22.5259 51.5138 22.5636C51.4983 22.6012 51.4756 22.6354 51.4471 22.6642C51.4185 22.693 51.3846 22.7158 51.3472 22.7314C51.3099 22.747 51.2699 22.755 51.2295 22.755H48.9218C48.8812 22.7543 48.8411 22.7456 48.8038 22.7292C48.7666 22.7128 48.7329 22.6892 48.7048 22.6596C48.6767 22.6301 48.6546 22.5952 48.6399 22.557C48.6253 22.5188 48.6182 22.4781 48.6192 22.4371V22.4371ZM54.8962 16.0695C55.5063 16.0803 56.1076 15.922 56.6346 15.6121C57.1471 15.2991 57.5565 14.8406 57.8115 14.2941C58.102 13.6742 58.246 12.9948 58.2321 12.3094C58.2321 11.1654 57.9286 10.248 57.3218 9.55713C57.0043 9.23051 56.6253 8.97104 56.207 8.79389C55.7887 8.61675 55.3396 8.52551 54.8859 8.52551C54.4322 8.52551 53.9831 8.61675 53.5648 8.79389C53.1465 8.97104 52.7675 9.23051 52.45 9.55713C51.8449 10.2463 51.5423 11.1637 51.5423 12.3094C51.5275 12.9946 51.6706 13.674 51.9603 14.2941C52.2176 14.8399 52.6276 15.298 53.1397 15.6121C53.6726 15.9239 54.2802 16.0821 54.8962 16.0695V16.0695Z" fill="var(--fill-0, #000014)"/>
<path id="Vector_5" d="M63.0636 17.9682V1.55035C63.0636 1.4681 63.096 1.38922 63.1537 1.33106C63.2114 1.27291 63.2897 1.24023 63.3713 1.24023H65.679C65.7606 1.24023 65.8388 1.27291 65.8965 1.33106C65.9542 1.38922 65.9866 1.4681 65.9866 1.55035V17.976C65.987 18.0168 65.9793 18.0573 65.9639 18.095C65.9486 18.1328 65.9259 18.1671 65.8973 18.196C65.8686 18.2249 65.8346 18.2477 65.7971 18.2632C65.7596 18.2786 65.7195 18.2864 65.679 18.2861H63.3713C63.3302 18.2861 63.2896 18.2778 63.2517 18.2618C63.2139 18.2457 63.1796 18.2221 63.1509 18.1925C63.1222 18.1629 63.0997 18.1278 63.0847 18.0893C63.0697 18.0507 63.0625 18.0096 63.0636 17.9682V17.9682Z" fill="var(--fill-0, #000014)"/>
<path id="Vector_6" d="M70.4636 4.73732C69.9692 4.73528 69.4956 4.53641 69.1459 4.18403C68.7963 3.83165 68.599 3.3543 68.597 2.85597C68.5925 2.60493 68.6389 2.35561 68.7332 2.12323C68.8276 1.89085 68.9679 1.68029 69.1457 1.5044C69.3162 1.32625 69.5211 1.18526 69.7478 1.09013C69.9745 0.995008 70.2181 0.947777 70.4636 0.951362C70.7109 0.949024 70.9561 0.996773 71.1847 1.09177C71.4133 1.18677 71.6206 1.32709 71.7944 1.5044C71.975 1.67865 72.1179 1.88868 72.2141 2.12128C72.3103 2.35387 72.3577 2.60401 72.3534 2.85597C72.3556 3.10418 72.3071 3.3502 72.211 3.57872C72.1148 3.80725 71.973 4.01337 71.7944 4.18428C71.621 4.36207 71.4137 4.5027 71.185 4.59773C70.9564 4.69277 70.711 4.74025 70.4636 4.73732V4.73732Z" fill="var(--fill-0, #000014)"/>
<path id="Vector_7" d="M71.6245 6.31348H69.2784C69.1085 6.31348 68.9707 6.45232 68.9707 6.62359V17.9711C68.9707 18.1424 69.1085 18.2812 69.2784 18.2812H71.6245C71.7945 18.2812 71.9322 18.1424 71.9322 17.9711V6.62359C71.9322 6.45232 71.7945 6.31348 71.6245 6.31348Z" fill="var(--fill-0, #000014)"/>
<path id="Vector_8" d="M74.6602 17.9682V6.62323C74.6602 6.54098 74.6926 6.4621 74.7503 6.40394C74.808 6.34579 74.8863 6.31311 74.9679 6.31311H77.2909C77.3314 6.31277 77.3716 6.32056 77.4091 6.33602C77.4466 6.35148 77.4806 6.37431 77.5093 6.40318C77.5379 6.43204 77.5606 6.46636 77.5759 6.50414C77.5913 6.54192 77.599 6.5824 77.5986 6.62323V7.1866C77.5979 7.22469 77.6088 7.2621 77.6298 7.29376C77.6509 7.32542 77.6811 7.3498 77.7163 7.36361C77.7515 7.37742 77.7901 7.37999 77.8269 7.37098C77.8636 7.36197 77.8967 7.34181 77.9217 7.31323C78.2796 6.93214 78.7037 6.62033 79.173 6.39323C79.8497 6.08095 80.5879 5.92721 81.332 5.94356C82.7627 5.94356 83.8824 6.39839 84.6909 7.30806C85.4995 8.21772 85.9038 9.45559 85.9038 11.0217V17.9759C85.9038 18.0582 85.8713 18.137 85.8136 18.1952C85.7559 18.2534 85.6777 18.286 85.5961 18.286H83.2499C83.2094 18.2864 83.1692 18.2786 83.1318 18.2631C83.0943 18.2477 83.0602 18.2248 83.0316 18.196C83.0029 18.1671 82.9803 18.1328 82.9649 18.095C82.9496 18.0572 82.9419 18.0167 82.9422 17.9759V11.2258C82.9422 10.3161 82.7268 9.62615 82.3012 9.1584C81.8756 8.69064 81.2397 8.45289 80.3986 8.45289C79.8858 8.44402 79.3806 8.57913 78.9397 8.84311C78.5068 9.10758 78.1621 9.49633 77.9499 9.95952C77.7067 10.4895 77.5865 11.0684 77.5986 11.6522V17.9708C77.599 18.0116 77.5913 18.0521 77.5759 18.0898C77.5606 18.1276 77.5379 18.1619 77.5093 18.1908C77.4806 18.2197 77.4466 18.2425 77.4091 18.258C77.3716 18.2734 77.3314 18.2812 77.2909 18.2809H74.9602C74.8795 18.2788 74.8028 18.2449 74.7467 18.1864C74.6905 18.1279 74.6595 18.0495 74.6602 17.9682V17.9682Z" fill="var(--fill-0, #000014)"/>
<path id="Vector_9" d="M97.8962 14.8824C97.8388 14.8284 97.7632 14.7984 97.6847 14.7984C97.6061 14.7984 97.5305 14.8284 97.4731 14.8824C97.0736 15.2305 96.6315 15.5258 96.1577 15.761C95.5299 16.0711 94.8388 16.2286 94.1398 16.221C93.2642 16.2629 92.4042 15.9776 91.7244 15.4199C91.109 14.8876 90.7475 14.0882 90.6398 13.0217H99.3577C99.4369 13.0225 99.5133 12.9921 99.5707 12.9372C99.6281 12.8822 99.6621 12.8069 99.6654 12.7271C99.6654 12.6082 99.6654 12.4816 99.6654 12.3421C99.6934 11.1768 99.4621 10.02 98.9885 8.95666C98.5688 8.03634 97.8869 7.26269 97.0295 6.73419C96.095 6.19343 95.0297 5.92502 93.9526 5.95891C92.8131 5.93627 91.6888 6.2247 90.6988 6.79363C89.7815 7.32674 89.0357 8.11434 88.55 9.06262C88.0449 10.068 87.7889 11.1817 87.8039 12.3085C87.7828 13.4468 88.0521 14.5716 88.5859 15.575C89.0918 16.5161 89.8461 17.2978 90.7654 17.8336C91.7616 18.3977 92.8898 18.6815 94.0321 18.6554C95.0445 18.669 96.0491 18.4765 96.9859 18.0895C97.8017 17.7404 98.544 17.2379 99.1731 16.6087C99.2018 16.5799 99.2246 16.5456 99.2401 16.5079C99.2556 16.4703 99.2636 16.4298 99.2636 16.389C99.2636 16.3482 99.2556 16.3078 99.2401 16.2701C99.2246 16.2324 99.2018 16.1982 99.1731 16.1694L97.8962 14.8824ZM91.8654 9.04453C92.4614 8.57965 93.1994 8.33842 93.9526 8.36228C94.6673 8.33474 95.3662 8.57816 95.9116 9.04453C96.4538 9.56153 96.7794 10.2679 96.8218 11.0189H90.7321C90.8671 10.2467 91.2685 9.54744 91.8654 9.04453V9.04453Z" fill="var(--fill-0, #000014)"/>
<path id="Vector_10" d="M14.9195 15.1619L21.4042 21.7079C21.4892 21.7939 21.5471 21.9033 21.5705 22.0224C21.5939 22.1416 21.5819 22.265 21.5358 22.3772C21.4897 22.4894 21.4117 22.5853 21.3117 22.6529C21.2116 22.7205 21.0939 22.7568 20.9734 22.7571H7.65544C7.57219 22.7573 7.4897 22.741 7.4127 22.7091C7.33571 22.6771 7.26571 22.6302 7.20673 22.571L0.0887768 15.3842C0.0606339 15.3558 0.0383072 15.3222 0.023074 15.2852C0.00784089 15.2481 0 15.2085 0 15.1684C0 15.1283 0.00784089 15.0886 0.023074 15.0516C0.0383072 15.0145 0.0606339 14.9809 0.0887768 14.9526L7.39647 7.58225L0.906725 1.03371C0.825602 0.947443 0.771136 0.839252 0.749967 0.722328C0.728798 0.605403 0.741841 0.484797 0.787506 0.375215C0.833172 0.265633 0.909486 0.17181 1.00714 0.105185C1.1048 0.0385605 1.21958 0.00201316 1.33749 0H14.6708C14.8381 0.000211755 14.9985 0.0671012 15.117 0.186068L22.2452 7.37292C22.2733 7.40124 22.2957 7.43488 22.3109 7.47191C22.3261 7.50893 22.334 7.54862 22.334 7.58871C22.334 7.62879 22.3261 7.66848 22.3109 7.70551C22.2957 7.74254 22.2733 7.77617 22.2452 7.80449L14.9195 15.1619Z" fill="var(--fill-0, #6792FF)"/>
<path id="Vector_11" d="M22.2324 7.36739C22.2604 7.39549 22.2827 7.42891 22.2979 7.46572C22.3131 7.50253 22.3209 7.54201 22.3209 7.58188C22.3209 7.62175 22.3131 7.66123 22.2979 7.69805C22.2827 7.73486 22.2604 7.76828 22.2324 7.79638L14.9195 15.1615L7.60416 22.5319C7.57628 22.5602 7.54312 22.5826 7.5066 22.5979C7.47007 22.6133 7.4309 22.6211 7.39134 22.6211C7.35178 22.6211 7.31261 22.6133 7.27609 22.5979C7.23956 22.5826 7.2064 22.5602 7.17852 22.5319L0.0887768 15.3838C0.0606339 15.3555 0.0383072 15.3218 0.023074 15.2848C0.00784089 15.2478 0 15.2081 0 15.168C0 15.1279 0.00784089 15.0882 0.023074 15.0512C0.0383072 15.0142 0.0606339 14.9805 0.0887768 14.9522L7.39134 7.58188L14.7042 0.211545C14.7323 0.183181 14.7656 0.160679 14.8024 0.145326C14.8391 0.129973 14.8785 0.12207 14.9183 0.12207C14.958 0.12207 14.9974 0.129973 15.0342 0.145326C15.0709 0.160679 15.1043 0.183181 15.1324 0.211545L22.2324 7.36739Z" fill="var(--fill-0, #2851F0)"/>
</g>
</svg>
