<svg preserveAspectRatio="none" width="100%" height="100%" overflow="visible" style="display: block;" viewBox="0 0 99.9885 19.3415" fill="none" xmlns="http://www.w3.org/2000/svg">
<g id="Group 2439">
<g id="Passport">
<path d="M24.1097 15.4884V1.7887H28.993C30.0588 1.7887 30.9418 1.98269 31.6419 2.37067C32.3421 2.75865 32.8661 3.28934 33.2139 3.96273C33.5618 4.63167 33.7357 5.38533 33.7357 6.22373C33.7357 7.06658 33.5595 7.82471 33.2072 8.4981C32.8594 9.16703 32.3332 9.69772 31.6286 10.0902C30.9284 10.4781 30.0476 10.6721 28.9863 10.6721H25.6282V8.91953H28.799C29.4724 8.91953 30.0187 8.80358 30.4379 8.57168C30.8571 8.33533 31.1648 8.01424 31.361 7.60842C31.5572 7.2026 31.6553 6.74104 31.6553 6.22373C31.6553 5.70642 31.5572 5.24709 31.361 4.84573C31.1648 4.44437 30.8548 4.12997 30.4312 3.90253C30.012 3.67509 29.459 3.56137 28.7722 3.56137H26.1768V15.4884H24.1097Z" fill="var(--fill-0, #2851F0)"/>
<path d="M38.5198 15.7159C37.8687 15.7159 37.28 15.5955 36.7538 15.3547C36.2276 15.1094 35.8106 14.7549 35.5029 14.2911C35.1996 13.8273 35.048 13.2587 35.048 12.5853C35.048 12.0055 35.1595 11.5284 35.3825 11.1538C35.6054 10.7792 35.9065 10.4826 36.2855 10.2641C36.6646 10.0456 37.0883 9.88056 37.5565 9.76907C38.0248 9.65758 38.5019 9.57285 38.988 9.51488C39.6034 9.44352 40.1029 9.38555 40.4864 9.34095C40.87 9.2919 41.1487 9.21386 41.3226 9.10683C41.4965 8.9998 41.5835 8.82588 41.5835 8.58506V8.53824C41.5835 7.95403 41.4185 7.50139 41.0885 7.1803C40.7629 6.85921 40.2768 6.69867 39.6302 6.69867C38.9568 6.69867 38.4261 6.84806 38.0381 7.14685C37.6546 7.44119 37.3893 7.76896 37.2421 8.13019L35.3624 7.70207C35.5854 7.07773 35.9109 6.5738 36.339 6.19028C36.7716 5.8023 37.2689 5.52135 37.8308 5.34742C38.3927 5.16904 38.9836 5.07985 39.6034 5.07985C40.0137 5.07985 40.4485 5.12891 40.9079 5.22702C41.3717 5.32067 41.8042 5.49459 42.2056 5.74878C42.6114 6.00298 42.9436 6.36643 43.2023 6.83915C43.461 7.3074 43.5903 7.91613 43.5903 8.66533V15.4884H41.637V14.0837H41.5567C41.4274 14.3423 41.2334 14.5965 40.9748 14.8463C40.7161 15.096 40.3839 15.3034 39.978 15.4684C39.5722 15.6334 39.0861 15.7159 38.5198 15.7159ZM38.9546 14.1104C39.5076 14.1104 39.9803 14.0012 40.3727 13.7827C40.7696 13.5642 41.0706 13.2787 41.2758 12.9264C41.4854 12.5697 41.5902 12.1884 41.5902 11.7826V10.4581C41.5188 10.5294 41.3806 10.5963 41.1754 10.6588C40.9748 10.7167 40.7451 10.768 40.4864 10.8126C40.2278 10.8527 39.9758 10.8906 39.7305 10.9263C39.4853 10.9575 39.2801 10.9843 39.1151 11.0066C38.7271 11.0557 38.3726 11.1382 38.0515 11.2541C37.7349 11.3701 37.4807 11.5373 37.2889 11.7558C37.1016 11.9699 37.008 12.2553 37.008 12.612C37.008 13.107 37.1908 13.4816 37.5565 13.7358C37.9222 13.9856 38.3882 14.1104 38.9546 14.1104Z" fill="var(--fill-0, #2851F0)"/>
<path d="M53.577 7.72214L51.7642 8.04322C51.6884 7.81133 51.5679 7.59058 51.4029 7.38098C51.2424 7.17138 51.0239 6.99969 50.7474 6.8659C50.4709 6.73212 50.1253 6.66522 49.7105 6.66522C49.1442 6.66522 48.6715 6.79232 48.2924 7.04651C47.9133 7.29625 47.7238 7.61957 47.7238 8.01647C47.7238 8.35985 47.8509 8.63635 48.1051 8.84594C48.3593 9.05554 48.7696 9.22724 49.3359 9.36102L50.9681 9.73562C51.9136 9.95414 52.6182 10.2908 53.082 10.7457C53.5458 11.2006 53.7777 11.7915 53.7777 12.5184C53.7777 13.1338 53.5993 13.6823 53.2425 14.164C52.8902 14.6411 52.3974 15.0157 51.7642 15.2878C51.1354 15.5598 50.4062 15.6958 49.5768 15.6958C48.4262 15.6958 47.4875 15.4505 46.7606 14.96C46.0336 14.465 45.5877 13.7626 45.4227 12.8529L47.3559 12.5585C47.4763 13.0625 47.7238 13.4437 48.0984 13.7024C48.473 13.9566 48.9613 14.0837 49.5634 14.0837C50.2189 14.0837 50.7429 13.9477 51.1354 13.6756C51.5278 13.3991 51.724 13.0625 51.724 12.6656C51.724 12.3445 51.6036 12.0747 51.3628 11.8561C51.1265 11.6376 50.763 11.4726 50.2724 11.3611L48.5332 10.9798C47.5744 10.7613 46.8654 10.4135 46.406 9.9363C45.9511 9.45913 45.7237 8.85486 45.7237 8.1235C45.7237 7.517 45.8932 6.98631 46.2321 6.53144C46.571 6.07656 47.0393 5.72203 47.6369 5.46783C48.2344 5.20918 48.919 5.07985 49.6905 5.07985C50.8009 5.07985 51.675 5.32067 52.3127 5.8023C52.9504 6.27947 53.3718 6.91942 53.577 7.72214Z" fill="var(--fill-0, #2851F0)"/>
<path d="M63.2994 7.72214L61.4866 8.04322C61.4108 7.81133 61.2904 7.59058 61.1254 7.38098C60.9649 7.17138 60.7464 6.99969 60.4699 6.8659C60.1934 6.73212 59.8478 6.66522 59.433 6.66522C58.8667 6.66522 58.3939 6.79232 58.0149 7.04651C57.6358 7.29625 57.4463 7.61957 57.4463 8.01647C57.4463 8.35985 57.5734 8.63635 57.8276 8.84594C58.0818 9.05554 58.4921 9.22724 59.0584 9.36102L60.6906 9.73562C61.636 9.95414 62.3406 10.2908 62.8044 10.7457C63.2682 11.2006 63.5001 11.7915 63.5001 12.5184C63.5001 13.1338 63.3217 13.6823 62.965 14.164C62.6127 14.6411 62.1199 15.0157 61.4866 15.2878C60.8578 15.5598 60.1287 15.6958 59.2992 15.6958C58.1487 15.6958 57.2099 15.4505 56.483 14.96C55.7561 14.465 55.3102 13.7626 55.1452 12.8529L57.0784 12.5585C57.1988 13.0625 57.4463 13.4437 57.8209 13.7024C58.1955 13.9566 58.6838 14.0837 59.2859 14.0837C59.9414 14.0837 60.4654 13.9477 60.8578 13.6756C61.2503 13.3991 61.4465 13.0625 61.4465 12.6656C61.4465 12.3445 61.3261 12.0747 61.0853 11.8561C60.8489 11.6376 60.4855 11.4726 59.9949 11.3611L58.2557 10.9798C57.2969 10.7613 56.5878 10.4135 56.1285 9.9363C55.6736 9.45913 55.4462 8.85486 55.4462 8.1235C55.4462 7.517 55.6156 6.98631 55.9546 6.53144C56.2935 6.07656 56.7617 5.72203 57.3593 5.46783C57.9569 5.20918 58.6414 5.07985 59.4129 5.07985C60.5234 5.07985 61.3975 5.32067 62.0352 5.8023C62.6729 6.27947 63.0943 6.91942 63.2994 7.72214Z" fill="var(--fill-0, #2851F0)"/>
<path d="M65.3225 19.3415V5.21364H67.2758V6.87928H67.443C67.559 6.66522 67.7262 6.41772 67.9447 6.13677C68.1632 5.85581 68.4665 5.61054 68.8545 5.40094C69.2425 5.18688 69.7553 5.07985 70.393 5.07985C71.2225 5.07985 71.9628 5.28945 72.6139 5.70865C73.265 6.12785 73.7756 6.73212 74.1457 7.52146C74.5203 8.3108 74.7076 9.26068 74.7076 10.3711C74.7076 11.4815 74.5226 12.4337 74.1524 13.2275C73.7823 14.0168 73.2739 14.6255 72.6273 15.0536C71.9806 15.4773 71.2426 15.6891 70.4131 15.6891C69.7887 15.6891 69.2781 15.5843 68.8812 15.3747C68.4888 15.1651 68.1811 14.9199 67.9581 14.6389C67.7351 14.358 67.5634 14.1082 67.443 13.8897H67.3226V19.3415H65.3225ZM67.2825 10.351C67.2825 11.0735 67.3873 11.7067 67.5969 12.2508C67.8065 12.7949 68.1097 13.2208 68.5066 13.5285C68.9035 13.8317 69.3896 13.9833 69.9649 13.9833C70.5625 13.9833 71.0619 13.825 71.4633 13.5084C71.8647 13.1873 72.1679 12.7525 72.3731 12.204C72.5827 11.6555 72.6875 11.0378 72.6875 10.351C72.6875 9.67319 72.5849 9.06446 72.3797 8.52486C72.1791 7.98525 71.8758 7.55936 71.47 7.24719C71.0686 6.93503 70.5669 6.77894 69.9649 6.77894C69.3852 6.77894 68.8946 6.92834 68.4932 7.22713C68.0963 7.52592 67.7953 7.94288 67.5902 8.47803C67.385 9.01318 67.2825 9.63752 67.2825 10.351Z" fill="var(--fill-0, #2851F0)"/>
<path d="M80.8998 15.6958C79.9365 15.6958 79.0959 15.4751 78.3779 15.0336C77.6599 14.5921 77.1025 13.9744 76.7056 13.1806C76.3087 12.3868 76.1102 11.4592 76.1102 10.3979C76.1102 9.33203 76.3087 8.39999 76.7056 7.60173C77.1025 6.80347 77.6599 6.18359 78.3779 5.7421C79.0959 5.3006 79.9365 5.07985 80.8998 5.07985C81.8631 5.07985 82.7037 5.3006 83.4217 5.7421C84.1397 6.18359 84.6971 6.80347 85.094 7.60173C85.4909 8.39999 85.6894 9.33203 85.6894 10.3979C85.6894 11.4592 85.4909 12.3868 85.094 13.1806C84.6971 13.9744 84.1397 14.5921 83.4217 15.0336C82.7037 15.4751 81.8631 15.6958 80.8998 15.6958ZM80.9065 14.0168C81.5308 14.0168 82.0481 13.8518 82.4584 13.5218C82.8687 13.1918 83.172 12.7525 83.3682 12.204C83.5689 11.6555 83.6692 11.0512 83.6692 10.3912C83.6692 9.73562 83.5689 9.13359 83.3682 8.58506C83.172 8.03208 82.8687 7.58835 82.4584 7.25388C82.0481 6.91942 81.5308 6.75218 80.9065 6.75218C80.2777 6.75218 79.7559 6.91942 79.3412 7.25388C78.9309 7.58835 78.6254 8.03208 78.4248 8.58506C78.2285 9.13359 78.1304 9.73562 78.1304 10.3912C78.1304 11.0512 78.2285 11.6555 78.4248 12.204C78.6254 12.7525 78.9309 13.1918 79.3412 13.5218C79.7559 13.8518 80.2777 14.0168 80.9065 14.0168Z" fill="var(--fill-0, #2851F0)"/>
<path d="M87.5452 15.4884V5.21364H89.4784V6.84583H89.5854C89.7727 6.29285 90.1027 5.85804 90.5755 5.54142C91.0526 5.22033 91.5922 5.05978 92.1943 5.05978C92.3191 5.05978 92.4663 5.06424 92.6358 5.07316C92.8097 5.08208 92.9457 5.09323 93.0438 5.10661V7.01976C92.9635 6.99746 92.8208 6.97293 92.6157 6.94617C92.4106 6.91496 92.2054 6.89935 92.0003 6.89935C91.5276 6.89935 91.1061 6.99969 90.736 7.20037C90.3703 7.39659 90.0804 7.67085 89.8664 8.02316C89.6523 8.371 89.5453 8.7679 89.5453 9.21386V15.4884H87.5452Z" fill="var(--fill-0, #2851F0)"/>
<path d="M99.8012 5.21364V6.81908H94.1889V5.21364H99.8012ZM95.694 2.75197H97.6941V12.4716C97.6941 12.8595 97.7521 13.1516 97.868 13.3479C97.984 13.5396 98.1334 13.6712 98.3162 13.7425C98.5035 13.8094 98.7064 13.8429 98.9249 13.8429C99.0855 13.8429 99.226 13.8317 99.3464 13.8094C99.4668 13.7871 99.5604 13.7693 99.6273 13.7559L99.9885 15.4082C99.8726 15.4528 99.7076 15.4974 99.4935 15.542C99.2795 15.591 99.0119 15.6178 98.6908 15.6222C98.1646 15.6312 97.674 15.5375 97.2192 15.3413C96.7643 15.1451 96.3964 14.8418 96.1154 14.4315C95.8345 14.0213 95.694 13.5062 95.694 12.8863V2.75197Z" fill="var(--fill-0, #2851F0)"/>
</g>
<g id="Group 1480">
<path id="Vector" d="M10.9104 11.0054L15.652 15.7469C15.7145 15.8095 15.757 15.8892 15.7742 15.9759C15.7914 16.0626 15.7826 16.1525 15.7488 16.2342C15.7149 16.3159 15.6577 16.3857 15.5842 16.4349C15.5107 16.4841 15.4243 16.5104 15.3359 16.5105H5.60951C5.48599 16.5087 5.36775 16.46 5.27881 16.3743L0.0752017 11.1707C0.0333286 11.1288 0.00981105 11.0719 0.00981105 11.0126C0.00981105 10.9534 0.0333286 10.8965 0.0752017 10.8546L5.42471 5.50511L0.687965 0.758656C0.625076 0.697039 0.581996 0.618063 0.564233 0.53183C0.54647 0.445598 0.554829 0.356027 0.588246 0.274573C0.621664 0.193118 0.67862 0.123484 0.751827 0.0745723C0.825034 0.0256608 0.911166 -0.000300988 0.999209 2.63297e-06H10.7256C10.8474 0.00296166 10.9637 0.0515575 11.0514 0.136171L16.2599 5.34462C16.3018 5.38656 16.3253 5.44341 16.3253 5.50268C16.3253 5.56195 16.3018 5.61879 16.2599 5.66073L10.9104 11.0054Z" fill="var(--fill-0, #6792FF)"/>
<path id="Vector_2" d="M16.2501 5.35586C16.292 5.3978 16.3155 5.45464 16.3155 5.51391C16.3155 5.57318 16.292 5.63003 16.2501 5.67197L10.9006 11.0215L5.55107 16.3709C5.53072 16.3915 5.50648 16.4079 5.47977 16.419C5.45306 16.4302 5.4244 16.4359 5.39545 16.4359C5.3665 16.4359 5.33784 16.4302 5.31113 16.419C5.28442 16.4079 5.26018 16.3915 5.23983 16.3709L0.0653907 11.1722C0.0235175 11.1303 0 11.0734 0 11.0142C0 10.9549 0.0235175 10.898 0.0653907 10.8561L5.4149 5.50662L10.7644 0.157125C10.7848 0.13654 10.809 0.120201 10.8357 0.109047C10.8624 0.0978934 10.8911 0.0921504 10.92 0.0921504C10.949 0.0921504 10.9776 0.0978934 11.0044 0.109047C11.0311 0.120201 11.0553 0.13654 11.0757 0.157125L16.2501 5.35586Z" fill="var(--fill-0, #2851F0)"/>
</g>
</g>
</svg>
